#define click_width 16
#define click_height 16
#define click_x_hot 0
#define click_y_hot 0
static unsigned char click_bits[] = {
   0x03, 0x00, 0x05, 0x00, 0x09, 0x00, 0x11, 0x00, 0x21, 0x00, 0x41, 0x00,
   0x81, 0x00, 0x01, 0x01, 0x01, 0x02, 0xc1, 0x01, 0x49, 0x00, 0x95, 0x00,
   0x92, 0x00, 0x20, 0x01, 0x20, 0x01, 0xc0, 0x00 };
