#define click_mask_width 16
#define click_mask_height 16
#define click_mask_x_hot 0
#define click_mask_y_hot 0
static unsigned char click_mask_bits[] = {
   0x03, 0x00, 0x07, 0x00, 0x0f, 0x00, 0x1f, 0x00, 0x3f, 0x00, 0x7f, 0x00,
   0xff, 0x00, 0xff, 0x01, 0xff, 0x03, 0xff, 0x01, 0x7f, 0x00, 0xf7, 0x00,
   0xf2, 0x00, 0xe0, 0x01, 0xe0, 0x01, 0xc0, 0x00 };
