#define hello_width 8
#define hello_height 16
#define hello_x_hot 4
#define hello_y_hot 8
static unsigned char hello_bits[] = {
   0x7f, 0x49, 0x77, 0x14, 0x14, 0x14, 0x14, 0x14, 0x14, 0x14, 0x14, 0x14,
   0x14, 0x77, 0x49, 0x7f };
