#define hello_mask_width 8
#define hello_mask_height 16
#define hello_mask_x_hot 4
#define hello_mask_y_hot 8
static unsigned char hello_mask_bits[] = {
   0x7f, 0x7f, 0x7f, 0x1c, 0x1c, 0x1c, 0x1c, 0x1c, 0x1c, 0x1c, 0x1c, 0x1c,
   0x1c, 0x7f, 0x7f, 0x7f };
